<?xml version="1.0" standalone="no"?>
<!DOCTYPE svg PUBLIC "-//W3C//DTD SVG 20010904//EN"
 "http://www.w3.org/TR/2001/REC-SVG-20010904/DTD/svg10.dtd">
<svg version="1.0" xmlns="http://www.w3.org/2000/svg"
 width="16.000000pt" height="16.000000pt" viewBox="0 0 16.000000 16.000000"
 preserveAspectRatio="xMidYMid meet">

<g transform="translate(0.000000,16.000000) scale(0.100000,-0.100000)"
fill="#000000" stroke="none">
<path d="M30 135 c-19 -22 -2 -53 35 -65 40 -13 46 -37 13 -44 -13 -3 -32 -7
-43 -9 -11 -3 3 -5 32 -6 35 -1 57 4 67 15 30 30 16 61 -35 74 -46 13 -50 27
-11 36 48 10 48 12 1 13 -29 1 -51 -4 -59 -14z"/>
</g>
</svg>
